<?xml version="1.0" encoding="UTF-8" standalone="no"?>
<!-- Generator: Adobe Illustrator 19.2.0, SVG Export Plug-In . SVG Version: 6.00 Build 0)  -->

<svg
   xmlns:dc="http://purl.org/dc/elements/1.1/"
   xmlns:cc="http://creativecommons.org/ns#"
   xmlns:rdf="http://www.w3.org/1999/02/22-rdf-syntax-ns#"
   xmlns:svg="http://www.w3.org/2000/svg"
   xmlns="http://www.w3.org/2000/svg"
   xmlns:sodipodi="http://sodipodi.sourceforge.net/DTD/sodipodi-0.dtd"
   xmlns:inkscape="http://www.inkscape.org/namespaces/inkscape"
   version="1.1"
   id="Layer_1"
   x="0px"
   y="0px"
   viewBox="0 0 1000 1000"
   xml:space="preserve"
   sodipodi:docname="aftership.svg"
   width="1000"
   height="1000"
   inkscape:version="0.92.4 (unknown)"><metadata
   id="metadata13"><rdf:RDF><cc:Work
       rdf:about=""><dc:format>image/svg+xml</dc:format><dc:type
         rdf:resource="http://purl.org/dc/dcmitype/StillImage" /><dc:title></dc:title></cc:Work></rdf:RDF></metadata><defs
   id="defs11" /><sodipodi:namedview
   pagecolor="#ffffff"
   bordercolor="#666666"
   borderopacity="1"
   objecttolerance="10"
   gridtolerance="10"
   guidetolerance="10"
   inkscape:pageopacity="0"
   inkscape:pageshadow="2"
   inkscape:window-width="1920"
   inkscape:window-height="1016"
   id="namedview9"
   showgrid="false"
   inkscape:zoom="0.67289194"
   inkscape:cx="349.62971"
   inkscape:cy="480.28505"
   inkscape:window-x="0"
   inkscape:window-y="27"
   inkscape:window-maximized="1"
   inkscape:current-layer="Layer_1" />
<style
   type="text/css"
   id="style2">
	.st0{fill:#F9A31A;}
	.st1{fill:#FFFFFF;}
</style>
<g
   id="styleguide--_xD83D__xDC4F_"
   transform="matrix(21.481481,0,0,21.481489,210,169.72199)">
	<g
   id="Group-41-Copy">
		<path
   id="Shape"
   class="st0"
   d="M 27,13.5 C 27,6 20.9,0 13.5,0 6,0 0,6 0,13.5 0,19.8 4.3,25 10.1,26.5 l 3.4,4.4 3.4,-4.4 C 22.7,25 27,19.8 27,13.5 Z"
   inkscape:connector-curvature="0"
   style="fill:#f9a31a" />
		<path
   id="Shape_1_"
   class="st1"
   d="M 6.6,9.7 C 6,9.3 6,8.8 6.6,8.6 l 5.6,-2.8 c 0.6,-0.3 1.6,-0.3 2.1,0 L 20,8.6 c 0.6,0.3 0.6,0.8 0,1.1 l -5.6,2.8 c -0.6,0.3 -1.6,0.3 -2.1,0 z m 7.1,5.5 c 0,-0.6 0.5,-1.5 1.1,-1.8 l 5.9,-2.9 c 0.6,-0.3 1.1,0 1.1,0.7 v 5.6 c 0,0.6 -0.5,1.5 -1.1,1.8 l -5.9,2.8 c -0.6,0.3 -1.1,0 -1.1,-0.7 z m -8,3.4 C 5.1,18.3 4.6,17.5 4.6,16.8 v -5.6 c 0,-0.6 0.5,-1 1.1,-0.7 l 5.8,2.9 c 0.6,0.3 1.1,1.1 1.1,1.8 v 5.6 c 0,0.6 -0.5,1 -1.1,0.7 z"
   inkscape:connector-curvature="0"
   style="fill:#ffffff" />
	</g>
</g>
</svg>