<?xml version="1.0" encoding="UTF-8"?>
<!-- Generator: Adobe Illustrator 19.2.0, SVG Export Plug-In . SVG Version: 6.00 Build 0)  -->
<svg version="1.1" id="Layer_1" xmlns="http://www.w3.org/2000/svg" xmlns:xlink="http://www.w3.org/1999/xlink" x="0px" y="0px" viewBox="0 0 27 31" style="enable-background:new 0 0 27 31;" xml:space="preserve">
<style type="text/css">
	.st0{fill:#F9A31A;}
	.st1{fill:#FFFFFF;}
</style>
<g id="styleguide--_xD83D__xDC4F_">
	<g id="Group-41-Copy">
		<path id="Shape" class="st0" d="M27,13.5C27,6,20.9,0,13.5,0C6,0,0,6,0,13.5C0,19.8,4.3,25,10.1,26.5l3.4,4.4l3.4-4.4    C22.7,25,27,19.8,27,13.5L27,13.5z"/>
		<path id="Shape_1_" class="st1" d="M6.6,9.7C6,9.3,6,8.8,6.6,8.6l5.6-2.8c0.6-0.3,1.6-0.3,2.1,0L20,8.6c0.6,0.3,0.6,0.8,0,1.1    l-5.6,2.8c-0.6,0.3-1.6,0.3-2.1,0L6.6,9.7L6.6,9.7z M13.7,15.2c0-0.6,0.5-1.5,1.1-1.8l5.9-2.9c0.6-0.3,1.1,0,1.1,0.7v5.6    c0,0.6-0.5,1.5-1.1,1.8l-5.9,2.8c-0.6,0.3-1.1,0-1.1-0.7V15.2L13.7,15.2z M5.7,18.6c-0.6-0.3-1.1-1.1-1.1-1.8v-5.6    c0-0.6,0.5-1,1.1-0.7l5.8,2.9c0.6,0.3,1.1,1.1,1.1,1.8v5.6c0,0.6-0.5,1-1.1,0.7L5.7,18.6L5.7,18.6z"/>
	</g>
</g>
</svg>