<?xml version="1.0" encoding="UTF-8" standalone="no"?>
<svg
   xmlns:dc="http://purl.org/dc/elements/1.1/"
   xmlns:cc="http://creativecommons.org/ns#"
   xmlns:rdf="http://www.w3.org/1999/02/22-rdf-syntax-ns#"
   xmlns:svg="http://www.w3.org/2000/svg"
   xmlns="http://www.w3.org/2000/svg"
   xmlns:sodipodi="http://sodipodi.sourceforge.net/DTD/sodipodi-0.dtd"
   xmlns:inkscape="http://www.inkscape.org/namespaces/inkscape"
   width="2500"
   height="2500"
   viewBox="0 0 46.986 46.989028"
   version="1.1"
   id="svg10"
   sodipodi:docname="dhl-1.svg"
   inkscape:version="0.92.4 (unknown)">
  <metadata
     id="metadata16">
    <rdf:RDF>
      <cc:Work
         rdf:about="">
        <dc:format>image/svg+xml</dc:format>
        <dc:type
           rdf:resource="http://purl.org/dc/dcmitype/StillImage" />
        <dc:title></dc:title>
      </cc:Work>
    </rdf:RDF>
  </metadata>
  <defs
     id="defs14" />
  <sodipodi:namedview
     pagecolor="#ffffff"
     bordercolor="#666666"
     borderopacity="1"
     objecttolerance="10"
     gridtolerance="10"
     guidetolerance="10"
     inkscape:pageopacity="0"
     inkscape:pageshadow="2"
     inkscape:window-width="3440"
     inkscape:window-height="1376"
     id="namedview12"
     showgrid="false"
     inkscape:zoom="0.14796238"
     inkscape:cx="-10.455508"
     inkscape:cy="797.5"
     inkscape:window-x="0"
     inkscape:window-y="27"
     inkscape:window-maximized="1"
     inkscape:current-layer="svg10" />
  <path
     d="M 0,0 H 46.989028 V 46.989028 H 0 Z"
     id="path2"
     inkscape:connector-curvature="0"
     style="fill:#ffcb01;stroke-width:1.25199711" />
  <g
     id="g8"
     style="fill:#d80613"
     transform="translate(0,8.3846732)">
    <path
       d="M 8.731,11.413 7.276,13.39 h 7.93 c 0.401,0 0.396,0.151 0.2,0.418 -0.199,0.27 -0.532,0.737 -0.735,1.012 -0.103,0.139 -0.289,0.392 0.327,0.392 h 3.243 l 0.961,-1.306 c 0.596,-0.809 0.052,-2.492 -2.079,-2.492 z"
       id="path4"
       inkscape:connector-curvature="0" />
    <path
       d="M 6.687,17.854 9.61,13.882 h 3.627 c 0.401,0 0.396,0.152 0.2,0.418 l -0.74,1.008 c -0.103,0.139 -0.289,0.392 0.327,0.392 h 4.858 c -0.403,0.554 -1.715,2.154 -4.067,2.154 z m 16.738,-2.155 -1.585,2.155 h -4.181 l 1.585,-2.155 z m 6.404,-0.488 H 19.604 L 22.4,11.413 h 4.179 l -1.602,2.178 h 1.865 l 1.604,-2.178 h 4.179 z m -0.359,0.488 -1.585,2.155 h -4.179 l 1.585,-2.155 z M 0.722,16.549 H 6.88 L 6.544,17.006 H 0.722 Z m 0,-0.85 H 7.506 L 7.169,16.156 H 0.722 Z m 0,1.7 H 6.255 L 5.92,17.854 H 0.722 Z m 45.543,-0.393 h -6.136 l 0.337,-0.457 h 5.799 z m 0,0.848 h -6.759 l 0.334,-0.455 h 6.425 z m -5.174,-2.155 h 5.174 v 0.458 h -5.51 z m -2.678,-4.286 -2.796,3.798 h -4.429 l 2.798,-3.798 z m -7.583,4.286 c 0,0 -0.305,0.418 -0.454,0.618 -0.524,0.71 -0.061,1.536 1.652,1.536 h 6.712 l 1.585,-2.154 z"
       id="path6"
       inkscape:connector-curvature="0" />
  </g>
</svg>
