<?xml version="1.0" encoding="UTF-8" standalone="no"?>
<svg
   xmlns:dc="http://purl.org/dc/elements/1.1/"
   xmlns:cc="http://creativecommons.org/ns#"
   xmlns:rdf="http://www.w3.org/1999/02/22-rdf-syntax-ns#"
   xmlns:svg="http://www.w3.org/2000/svg"
   xmlns="http://www.w3.org/2000/svg"
   xmlns:sodipodi="http://sodipodi.sourceforge.net/DTD/sodipodi-0.dtd"
   xmlns:inkscape="http://www.inkscape.org/namespaces/inkscape"
   width="1000"
   height="1000"
   viewBox="0 0 18.7944 18.795611"
   version="1.1"
   id="svg10"
   sodipodi:docname="dhl2.svg"
   inkscape:version="0.92.4 (unknown)">
  <metadata
     id="metadata16">
    <rdf:RDF>
      <cc:Work
         rdf:about="">
        <dc:format>image/svg+xml</dc:format>
        <dc:type
           rdf:resource="http://purl.org/dc/dcmitype/StillImage" />
        <dc:title></dc:title>
      </cc:Work>
    </rdf:RDF>
  </metadata>
  <defs
     id="defs14" />
  <sodipodi:namedview
     pagecolor="#ffffff"
     bordercolor="#666666"
     borderopacity="1"
     objecttolerance="10"
     gridtolerance="10"
     guidetolerance="10"
     inkscape:pageopacity="0"
     inkscape:pageshadow="2"
     inkscape:window-width="1920"
     inkscape:window-height="1016"
     id="namedview12"
     showgrid="false"
     inkscape:zoom="0.83700162"
     inkscape:cx="223.25444"
     inkscape:cy="487.72674"
     inkscape:window-x="0"
     inkscape:window-y="27"
     inkscape:window-maximized="1"
     inkscape:current-layer="svg10" />
  <g
     transform="matrix(0.13088866,0,0,0.13088866,-6.055e-4,8.0957251)"
     id="g30">
    <path
       class="st0"
       d="m 0,18.5 h 17.4 l -1,1.4 H 0 Z"
       id="path4"
       inkscape:connector-curvature="0"
       style="fill:#d40511" />
    <path
       class="st0"
       d="m 143.5,19.9 h -21.3 l 1.1,-1.4 h 20.3 v 1.4 z"
       id="path6"
       inkscape:connector-curvature="0"
       style="fill:#d40511" />
    <path
       class="st0"
       d="m 0,15.9 h 19.4 l -1.1,1.4 H 0 Z"
       id="path8"
       inkscape:connector-curvature="0"
       style="fill:#d40511" />
    <path
       class="st0"
       d="m 0,13.3 h 21.4 l -1.1,1.4 H 0 Z"
       id="path10"
       inkscape:connector-curvature="0"
       style="fill:#d40511" />
    <path
       class="st0"
       d="m 143.5,17.3 h -19.3 l 1.1,-1.4 h 18.3 v 1.4 z"
       id="path12"
       inkscape:connector-curvature="0"
       style="fill:#d40511" />
    <path
       class="st0"
       d="m 127.2,13.3 h 16.3 v 1.4 h -17.4 z"
       id="path14"
       inkscape:connector-curvature="0"
       style="fill:#d40511" />
    <path
       class="st0"
       d="M 18.8,19.9 28,7.6 c 0,0 10.2,0 11.4,0 1.3,0 1.3,0.5 0.6,1.3 -0.6,0.8 -1.7,2.3 -2.3,3.1 -0.3,0.5 -0.9,1.2 1,1.2 2.1,0 15.3,0 15.3,0 C 52.8,15 48.6,20 41.2,20 35.2,19.9 18.8,19.9 18.8,19.9 Z"
       id="path16"
       inkscape:connector-curvature="0"
       style="fill:#d40511" />
    <path
       class="st0"
       d="m 71.5,13.3 -5,6.7 H 53.4 l 5,-6.7 z"
       id="path18"
       inkscape:connector-curvature="0"
       style="fill:#d40511" />
    <path
       class="st0"
       d="m 90.6,13.3 -5,6.7 H 72.4 l 5,-6.7 z"
       id="path20"
       inkscape:connector-curvature="0"
       style="fill:#d40511" />
    <path
       class="st0"
       d="m 94.9,13.3 c 0,0 -1,1.3 -1.4,1.9 -1.7,2.2 -0.2,4.8 5.2,4.8 6.2,0 21.2,0 21.2,0 l 5,-6.7 z"
       id="path22"
       inkscape:connector-curvature="0"
       style="fill:#d40511" />
    <path
       class="st0"
       d="m 25.3,0 -4.6,6.1 c 0,0 23.7,0 25,0 1.3,0 1.3,0.5 0.6,1.3 -0.6,0.8 -1.7,2.3 -2.3,3.1 -0.3,0.4 -0.9,1.2 1,1.2 2.1,0 10.2,0 10.2,0 0,0 1.7,-2.2 3,-4.1 1.9,-2.5 0.2,-7.7 -6.5,-7.7 C 45.7,0 25.3,0 25.3,0 Z"
       id="path24"
       inkscape:connector-curvature="0"
       style="fill:#d40511" />
    <path
       class="st0"
       d="M 91.7,11.7 H 59.5 L 68.3,0 h 13.2 l -5,6.7 h 5.9 l 5,-6.7 h 13.2 z"
       id="path26"
       inkscape:connector-curvature="0"
       style="fill:#d40511" />
    <path
       class="st0"
       d="M 118.8,0 110,11.7 H 96 L 104.8,0 Z"
       id="path28"
       inkscape:connector-curvature="0"
       style="fill:#d40511" />
  </g>
</svg>
