<?xml version="1.0" encoding="UTF-8" standalone="no"?>
<svg
   xmlns:dc="http://purl.org/dc/elements/1.1/"
   xmlns:cc="http://creativecommons.org/ns#"
   xmlns:rdf="http://www.w3.org/1999/02/22-rdf-syntax-ns#"
   xmlns:svg="http://www.w3.org/2000/svg"
   xmlns="http://www.w3.org/2000/svg"
   xmlns:sodipodi="http://sodipodi.sourceforge.net/DTD/sodipodi-0.dtd"
   xmlns:inkscape="http://www.inkscape.org/namespaces/inkscape"
   width="1000"
   height="1000"
   viewBox="0 0 18.7944 18.795611"
   version="1.1"
   id="svg10"
   sodipodi:docname="fedex1.svg"
   inkscape:version="0.92.4 (unknown)">
  <metadata
     id="metadata16">
    <rdf:RDF>
      <cc:Work
         rdf:about="">
        <dc:format>image/svg+xml</dc:format>
        <dc:type
           rdf:resource="http://purl.org/dc/dcmitype/StillImage" />
        <dc:title />
      </cc:Work>
    </rdf:RDF>
  </metadata>
  <defs
     id="defs14" />
  <sodipodi:namedview
     pagecolor="#ffffff"
     bordercolor="#666666"
     borderopacity="1"
     objecttolerance="10"
     gridtolerance="10"
     guidetolerance="10"
     inkscape:pageopacity="0"
     inkscape:pageshadow="2"
     inkscape:window-width="1920"
     inkscape:window-height="1016"
     id="namedview12"
     showgrid="false"
     inkscape:zoom="0.4185008"
     inkscape:cx="-584.84"
     inkscape:cy="664.80034"
     inkscape:window-x="0"
     inkscape:window-y="27"
     inkscape:window-maximized="1"
     inkscape:current-layer="svg10" />
  <path
     d="M 0,0 H 18.795611 V 18.795611 H 0 Z"
     id="path2"
     inkscape:connector-curvature="0"
     style="fill:#ffffff;fill-opacity:1;stroke-width:0.50079882" />
  <polygon
     points="65.934,14.5 71.999,21.283 65.63,21.283 62.68,17.975 59.757,21.283 53.607,21.283 59.619,14.528 53.607,7.772 59.95,7.772 62.928,11.054 65.795,7.772 71.917,7.772 "
     id="polygon10"
     style="fill:#ff5900"
     transform="matrix(0.23495885,0,0,0.23495844,0.93842285,6.5151049)" />
  <polygon
     points="53.607,16.526 53.607,21.283 41.794,21.283 41.794,0 53.607,0 53.607,4.744 46.798,4.744 46.798,7.772 53.607,7.772 53.607,12.337 46.798,12.337 46.798,16.526 "
     id="polygon12"
     style="fill:#ff5900"
     transform="matrix(0.23495885,0,0,0.23495844,0.93842285,6.5151049)" />
  <path
     d="m 9.5875266,6.5151049 v 2.0465209 h -3.38e-4 C 9.3279575,8.2635193 9.004061,8.1598057 8.627888,8.1598057 c -0.7705705,0 -1.3496287,0.5238104 -1.5531336,1.2152382 C 6.8427839,8.6124311 6.2439644,8.145291 5.3561086,8.145291 c -0.7206935,0 -1.2902287,0.3234068 -1.5872066,0.8510533 V 8.3407531 H 2.2770049 V 7.6289066 H 3.9027513 V 6.5144645 H 0.93917505 V 11.515119 H 2.2674004 V 9.4133069 h 1.3240189 c -0.033246,0.1544878 -0.056926,0.3198617 -0.056926,0.495612 0,1.0433701 0.797817,1.7751321 1.8138716,1.7751321 0.85518,0 1.4188891,-0.401776 1.7168161,-1.13319 H 5.9279657 c -0.1541475,0.220548 -0.2711637,0.284988 -0.5787599,0.284988 -0.3581428,0 -0.6636091,-0.310701 -0.6636091,-0.680526 h 2.3174001 c 0.095754,0.828068 0.7454416,1.543065 1.6315353,1.543065 0.3823587,0 0.7322265,-0.188464 0.9457485,-0.505196 h 3.22e-4 v 0.324087 H 10.751202 V 6.5160206 Z m -4.8711965,2.913578 c 0.075371,-0.3178075 0.3207762,-0.5244322 0.6282045,-0.5244322 0.338161,0 0.5725845,0.2007393 0.6340567,0.5244322 9.45e-4,0 -1.2617923,0 -1.2617779,0 z m 4.1604174,1.3258031 c -0.4319243,0 -0.6997792,-0.402498 -0.6997792,-0.822481 0,-0.4487561 0.2331427,-0.8811108 0.6997792,-0.8811108 0.483727,0 0.676528,0.4319934 0.676528,0.8811108 0,0.425274 -0.203997,0.822481 -0.676528,0.822481 z"
     id="path14"
     inkscape:connector-curvature="0"
     style="fill:#2a007c;stroke-width:0.23495843" />
</svg>
