<?xml version="1.0" encoding="UTF-8" standalone="no"?>
<!-- Created with Inkscape (http://www.inkscape.org/) -->

<svg
   xmlns:dc="http://purl.org/dc/elements/1.1/"
   xmlns:cc="http://creativecommons.org/ns#"
   xmlns:rdf="http://www.w3.org/1999/02/22-rdf-syntax-ns#"
   xmlns:svg="http://www.w3.org/2000/svg"
   xmlns="http://www.w3.org/2000/svg"
   xmlns:sodipodi="http://sodipodi.sourceforge.net/DTD/sodipodi-0.dtd"
   xmlns:inkscape="http://www.inkscape.org/namespaces/inkscape"
   version="1.0"
   width="1000"
   height="1000"
   id="svg4515"
   sodipodi:docname="gls1.svg"
   inkscape:version="0.92.4 (unknown)">
  <metadata
     id="metadata128">
    <rdf:RDF>
      <cc:Work
         rdf:about="">
        <dc:format>image/svg+xml</dc:format>
        <dc:type
           rdf:resource="http://purl.org/dc/dcmitype/StillImage" />
        <dc:title />
      </cc:Work>
    </rdf:RDF>
  </metadata>
  <sodipodi:namedview
     pagecolor="#ffffff"
     bordercolor="#666666"
     borderopacity="1"
     objecttolerance="10"
     gridtolerance="10"
     guidetolerance="10"
     inkscape:pageopacity="0"
     inkscape:pageshadow="2"
     inkscape:window-width="1920"
     inkscape:window-height="1016"
     id="namedview126"
     showgrid="false"
     inkscape:zoom="0.3152"
     inkscape:cx="602.79188"
     inkscape:cy="1237.3096"
     inkscape:window-x="0"
     inkscape:window-y="27"
     inkscape:window-maximized="1"
     inkscape:current-layer="g4732" />
  <defs
     id="defs4517" />
  <g
     transform="translate(-341.95657,603.1724)"
     id="layer1">
    <g
       id="g4732"
       transform="matrix(0.4,0,0,0.4,205.17394,238.09658)">
      <rect
         width="2500"
         height="2500"
         x="341.95657"
         y="-2103.1724"
         style="color:#000000;display:inline;overflow:visible;visibility:visible;fill:#1c146b;fill-opacity:1;fill-rule:nonzero;stroke:none;stroke-width:237.95129395;stroke-linecap:butt;stroke-linejoin:miter;stroke-miterlimit:4;stroke-dasharray:none;stroke-dashoffset:0;stroke-opacity:1;marker:none;marker-start:none;marker-mid:none;marker-end:none;enable-background:accumulate"
         id="rect4513" />
      <g
         transform="matrix(14.677778,0,0,14.6778,-4983.6079,-5831.8459)"
         id="g4574">
        <path
           d="m 492.99233,347.07166 4.9748,-25.48645 h -8.63715 l -6.58723,34.0236 h 15.76186 l 1.62493,-8.53715 z"
           style="fill:#ffffff;fill-rule:evenodd;stroke:none;stroke-width:0.21600001;stroke-linecap:butt;stroke-linejoin:miter;stroke-miterlimit:10;stroke-dasharray:none"
           id="path4402"
           inkscape:connector-curvature="0" />
        <path
           d="m 518.49129,329.1474 c 1.39994,0 3.44985,0.31248 4.63731,0.74997 l 1.51243,-7.88718 c -1.83742,-0.21249 -3.77484,-0.42498 -5.93725,-0.42498 -9.39962,0 -13.82444,5.61227 -13.82444,11.87451 0,8.21216 8.42466,8.09967 8.42466,11.66202 0,1.73743 -1.29995,2.69989 -3.88734,2.69989 -1.94992,0 -4.42482,-0.42498 -5.93726,-1.07496 l -1.62493,8.42466 c 1.72493,0.43748 4.21233,0.64997 6.69972,0.64997 8.42466,0 14.24942,-5.62477 14.24942,-12.42449 0,-7.98717 -8.42466,-8.09967 -8.42466,-11.66202 0,-1.51244 1.08746,-2.58739 4.11234,-2.58739"
           style="fill:#ffffff;fill-rule:evenodd;stroke:none;stroke-width:0.21600001;stroke-linecap:butt;stroke-linejoin:miter;stroke-miterlimit:10;stroke-dasharray:none"
           id="path4404"
           inkscape:connector-curvature="0" />
        <path
           d="m 475.93053,321.58521 c -12.96197,0 -21.27662,9.7121 -21.27662,21.59911 0,7.3372 3.88859,12.52449 13.82693,12.52449 3.88734,0 7.98717,-0.74997 11.33703,-2.16241 l 3.13737,-16.41183 h -8.64964 l -1.93742,10.03709 c -0.76247,0.22499 -1.62493,0.22499 -2.3749,0.22499 -4.32483,0 -5.83726,-2.3749 -5.83726,-5.61227 0,-5.83726 3.56235,-11.99951 11.02454,-11.99951 2.04992,0 4.31233,0.43748 6.36224,0.97496 0.22499,0.1125 0.43748,0.21249 0.64998,0.21249 0.64997,0.32499 1.29994,0.54998 1.73742,0.76247 l 1.82493,-8.86214 c -3.01238,-0.74996 -6.58723,-1.28744 -9.8246,-1.28744"
           style="fill:#ffffff;fill-rule:evenodd;stroke:none;stroke-width:0.21600001;stroke-linecap:butt;stroke-linejoin:miter;stroke-miterlimit:10;stroke-dasharray:none"
           id="path4406"
           inkscape:connector-curvature="0" />
        <path
           d="m 410.72321,321.6477 -2.32865,11.29954 h 16.06434 c -13.30946,19.72419 -39.72962,16.37433 -46.71683,8.19966 -6.01476,-7.04971 -0.81872,-19.09921 17.0118,-26.54891 -17.65053,5.37478 -27.55637,19.4742 -21.73536,28.97381 6.59723,10.76206 27.16888,15.24938 45.45063,10.02459 12.21825,-4.28732 17.43304,-10.31207 19.33796,-13.54944 l -2.99238,15.63686 h 12.00951 l 6.51473,-34.03611 z"
           style="fill:#eaaf0f;fill-rule:evenodd;stroke:none;stroke-width:0.21600001;stroke-linecap:butt;stroke-linejoin:miter;stroke-miterlimit:10;stroke-dasharray:none"
           id="path4408"
           inkscape:connector-curvature="0" />
      </g>
    </g>
  </g>
</svg>
