<?xml version="1.0" encoding="UTF-8" standalone="no"?>
<!-- Generator: Adobe Illustrator 19.2.1, SVG Export Plug-In . SVG Version: 6.00 Build 0)  -->

<svg
   xmlns:dc="http://purl.org/dc/elements/1.1/"
   xmlns:cc="http://creativecommons.org/ns#"
   xmlns:rdf="http://www.w3.org/1999/02/22-rdf-syntax-ns#"
   xmlns:svg="http://www.w3.org/2000/svg"
   xmlns="http://www.w3.org/2000/svg"
   xmlns:sodipodi="http://sodipodi.sourceforge.net/DTD/sodipodi-0.dtd"
   xmlns:inkscape="http://www.inkscape.org/namespaces/inkscape"
   version="1.1"
   id="layer"
   x="0px"
   y="0px"
   viewBox="0 0 1000 1000"
   xml:space="preserve"
   sodipodi:docname="gls2.svg"
   width="1000"
   height="1000"
   inkscape:version="0.92.4 (unknown)"><metadata
   id="metadata50"><rdf:RDF><cc:Work
       rdf:about=""><dc:format>image/svg+xml</dc:format><dc:type
         rdf:resource="http://purl.org/dc/dcmitype/StillImage" /><dc:title /></cc:Work></rdf:RDF></metadata><defs
   id="defs48" /><sodipodi:namedview
   pagecolor="#ffffff"
   bordercolor="#666666"
   borderopacity="1"
   objecttolerance="10"
   gridtolerance="10"
   guidetolerance="10"
   inkscape:pageopacity="0"
   inkscape:pageshadow="2"
   inkscape:window-width="1920"
   inkscape:window-height="1016"
   id="namedview46"
   showgrid="false"
   inkscape:zoom="0.788"
   inkscape:cx="241.11675"
   inkscape:cy="494.92386"
   inkscape:window-x="0"
   inkscape:window-y="27"
   inkscape:window-maximized="1"
   inkscape:current-layer="layer" />
<style
   type="text/css"
   id="style31">
	.st0{fill:#001652;}
	.st1{fill-rule:evenodd;clip-rule:evenodd;fill:#001652;}
	.st2{fill-rule:evenodd;clip-rule:evenodd;fill:#FEBE10;}
</style>
<polygon
   class="st0"
   points="463.9,405.1 525.9,405.1 532,371.8 504,371.8 523.5,271.7 489.7,271.7 "
   id="polygon33"
   style="fill:#001652"
   transform="matrix(1.4998712,0,0,1.4998732,7.7808883,-1.2330075)" />
<g
   id="g37"
   transform="matrix(1.4998712,0,0,1.4998732,7.7808883,-1.2330075)">
	<path
   class="st1"
   d="m 604,301.2 c 5.6,0 13.5,1.4 18.4,3 l 5.8,-30.6 c -7.1,-1.2 -14.7,-2 -23.2,-2 -36.9,0 -54.2,22 -54.2,46.7 0,32.2 32.8,31.8 32.8,45.5 0,6.9 -4.9,10.7 -15.4,10.7 -7.1,0 -17.3,-1.7 -23.2,-3.9 l -6.3,33 c 6.8,1.3 16.4,2.2 26.2,2.2 32.8,0 56,-21.9 56,-48.4 0,-31.3 -33,-31.8 -33,-45.7 0.1,-6.1 4.2,-10.5 16.1,-10.5"
   id="path35"
   inkscape:connector-curvature="0"
   style="clip-rule:evenodd;fill:#001652;fill-rule:evenodd" />
</g>
<g
   id="g43"
   transform="matrix(1.4998712,0,0,1.4998732,7.7808883,-1.2330075)">
	<path
   class="st1"
   d="m 437.2,271.7 c -50.8,0 -83.3,37.9 -83.3,84.5 0,29.1 15.4,49.3 54,49.3 15.4,0 31.5,-2.7 44.5,-8.3 l 12.4,-64.5 h -34 l -7.3,39.3 c -3,0.8 -6.6,1 -9.3,1 -17.1,0 -23.2,-9.5 -23.2,-21.8 0,-23.2 14.2,-47.2 43.2,-47.2 8.1,0 17.1,1.5 25.1,4.1 0.8,0.2 1.7,0.5 2.6,0.7 2.9,1 5.2,2.2 7.1,3 l 6.8,-34.9 c -11.7,-3.2 -25.8,-5.2 -38.6,-5.2"
   id="path39"
   inkscape:connector-curvature="0"
   style="clip-rule:evenodd;fill:#001652;fill-rule:evenodd" />
	<path
   class="st2"
   d="m 182.5,272 -9.1,44.4 h 63 C 184.1,393.6 80.6,380.6 53.2,348.6 29.7,321 50,273.7 119.9,244.4 c -69.3,21 -108,76.4 -85.2,113.6 25.9,42.2 106.5,59.8 178.1,39.3 47.9,-16.9 68.2,-40.5 75.8,-53.2 l -11.8,61.3 h 47.1 L 349.5,272 Z"
   id="path41"
   inkscape:connector-curvature="0"
   style="clip-rule:evenodd;fill:#febe10;fill-rule:evenodd" />
</g>
</svg>