<?xml version="1.0" encoding="UTF-8" standalone="no"?>
<svg
   xmlns:dc="http://purl.org/dc/elements/1.1/"
   xmlns:cc="http://creativecommons.org/ns#"
   xmlns:rdf="http://www.w3.org/1999/02/22-rdf-syntax-ns#"
   xmlns:svg="http://www.w3.org/2000/svg"
   xmlns="http://www.w3.org/2000/svg"
   xmlns:sodipodi="http://sodipodi.sourceforge.net/DTD/sodipodi-0.dtd"
   xmlns:inkscape="http://www.inkscape.org/namespaces/inkscape"
   width="1000"
   height="1000"
   viewBox="0 0 18.7944 18.795611"
   version="1.1"
   id="svg10"
   sodipodi:docname="postnl.svg"
   inkscape:version="0.92.4 (unknown)">
  <metadata
     id="metadata16">
    <rdf:RDF>
      <cc:Work
         rdf:about="">
        <dc:format>image/svg+xml</dc:format>
        <dc:type
           rdf:resource="http://purl.org/dc/dcmitype/StillImage" />
        <dc:title></dc:title>
      </cc:Work>
    </rdf:RDF>
  </metadata>
  <defs
     id="defs14" />
  <sodipodi:namedview
     pagecolor="#ffffff"
     bordercolor="#666666"
     borderopacity="1"
     objecttolerance="10"
     gridtolerance="10"
     guidetolerance="10"
     inkscape:pageopacity="0"
     inkscape:pageshadow="2"
     inkscape:window-width="1920"
     inkscape:window-height="1016"
     id="namedview12"
     showgrid="false"
     inkscape:zoom="0.2092504"
     inkscape:cx="-1632.4297"
     inkscape:cy="1028.4818"
     inkscape:window-x="0"
     inkscape:window-y="27"
     inkscape:window-maximized="1"
     inkscape:current-layer="svg10" />
  <path
     d="M 0,2e-7 H 18.795611 V 18.795611 H 0 Z"
     id="path2"
     inkscape:connector-curvature="0"
     style="fill:#f29839;fill-opacity:1;stroke-width:0.50079882" />
  <g
     id="g6"
     style="fill:#ffffff;fill-opacity:0.94117647"
     transform="matrix(0.07094252,0,0,0.0709425,-5.5732668,-1.9691168)">
    <path
       d="M 240.639,95.872 C 216.816,82.737 181.029,68.6 158.754,68.6 c -5.844,0 -10.551,0.963 -13.988,2.854 -8.32,4.59 -15.277,16.968 -20.131,35.81 -4.027,15.662 -6.342,34.931 -6.342,52.86 0,35.681 8.285,78.646 26.473,88.679 3.721,2.051 8.699,3.094 14.799,3.094 23.014,0 58.055,-14.824 81.074,-27.517 25.354,-13.979 63.074,-42.622 63.113,-64.256 -0.035,-20.33 -36.922,-49.81 -63.113,-64.252 m -2.993,124.024 c -36.54,20.146 -75.346,31.727 -89.596,23.881 -15.713,-8.67 -23.582,-50.099 -23.586,-83.1 0.004,-32.745 8.357,-74.694 23.586,-83.095 13.367,-7.373 53.942,4.217 89.596,23.874 30.899,17.041 59.906,43.775 59.932,59.221 -0.029,16.192 -28.545,41.914 -59.932,59.219"
       id="path2-3"
       inkscape:connector-curvature="0"
       style="fill:#ffffff;fill-opacity:0.94117647" />
    <path
       d="m 255.578,150.145 c -1.506,0 -3.348,0.377 -5.072,1.032 -0.793,0.3 -1.961,0.962 -2.727,1.553 l -0.209,0.161 c -0.016,0.004 -0.07,0.033 -0.117,0.033 a 0.214,0.214 0 0 1 -0.217,-0.212 v -1.938 a 0.162,0.162 0 0 0 -0.162,-0.159 h -6.264 a 0.735,0.735 0 0 0 -0.744,0.728 v 24.689 c 0,0.082 0.074,0.153 0.162,0.153 h 6.842 c 0.086,0 0.162,-0.071 0.162,-0.153 v -17.431 c 0,-0.128 0.102,-0.285 0.186,-0.337 0.318,-0.194 1.232,-0.754 2.387,-1.423 1.16,-0.663 2.336,-1.022 3.303,-1.022 2.715,0 3.875,1.454 3.875,4.867 v 15.347 c 0,0.082 0.068,0.153 0.154,0.153 h 6.828 c 0.092,0 0.156,-0.063 0.156,-0.153 v -16.599 c 0,-6.079 -2.953,-9.289 -8.543,-9.289 m 19.719,-8.339 c -1.232,-1.359 -5.041,-3.756 -5.473,-3.756 -0.182,0 -0.217,0.042 -0.217,0.177 l 0.008,37.805 c 0,0.082 0.066,0.153 0.15,0.153 h 6.817 a 0.16,0.16 0 0 0 0.157,-0.153 l -0.002,-30.463 a 5.625,5.625 0 0 0 -1.44,-3.763 m -94.617,8.232 c -7.402,0 -13.359,4.107 -13.359,13.356 0,9.037 5.957,13.354 13.359,13.354 7.375,0 13.344,-4.317 13.344,-13.354 -0.001,-9.242 -5.969,-13.356 -13.344,-13.356 m 0,20.357 c -3.305,0 -5.785,-2.513 -5.785,-6.998 0,-4.88 2.48,-7.015 5.785,-7.015 3.293,0 5.77,2.134 5.77,7.015 -10e-4,4.485 -2.477,6.998 -5.77,6.998 m 54.781,-0.229 c -0.248,0 -1.934,0.66 -3.01,0.66 -2.289,0 -3.658,-1.08 -3.658,-4.704 v -9.438 c 0,-0.135 0.107,-0.248 0.248,-0.248 h 6.184 a 0.243,0.243 0 0 0 0.248,-0.249 h 0.004 l -0.004,-4.858 a 0.812,0.812 0 0 0 -0.809,-0.808 h -5.623 a 0.243,0.243 0 0 1 -0.248,-0.246 v -6.682 c 0,-0.204 -0.09,-0.264 -0.305,-0.264 -0.496,0 -4.346,2.472 -5.541,3.785 a 5.753,5.753 0 0 0 -1.465,3.822 v 16.417 c 0,7.123 4.113,9.35 8.539,9.35 2.531,0 4.25,-0.372 5.27,-0.922 a 0.813,0.813 0 0 0 0.422,-0.715 v -4.651 a 0.252,0.252 0 0 0 -0.252,-0.249 m -85.438,-19.645 h -9.734 a 0.824,0.824 0 0 0 -0.832,0.82 v 29.888 a 5.77,5.77 0 0 0 1.465,3.824 c 1.203,1.318 5.051,3.785 5.551,3.785 0.215,0 0.301,-0.058 0.301,-0.265 V 176.53 c 0,-0.143 0.107,-0.253 0.25,-0.253 h 2.846 c 9.127,0 14.672,-5.15 14.672,-12.586 -0.001,-7.426 -4.954,-13.17 -14.519,-13.17 m 0,19.066 h -3.004 a 0.247,0.247 0 0 1 -0.246,-0.249 v -11.886 c 0,-0.135 0.107,-0.249 0.246,-0.249 h 2.857 c 5.396,0 7.443,2.962 7.443,6.123 0.001,1.792 -0.866,6.261 -7.296,6.261 m 64.588,-7.317 c -1.512,-0.992 -3.355,-1.396 -5.139,-1.782 -0.318,-0.074 -1.504,-0.339 -1.771,-0.401 -2.178,-0.482 -3.897,-0.865 -3.897,-2.277 0,-1.219 1.178,-2.014 2.99,-2.014 2.297,0 5.482,0.461 8.965,1.765 0.174,0.064 0.414,-0.038 0.426,-0.272 v -5.047 a 0.855,0.855 0 0 0 -0.6,-0.805 c -1.217,-0.386 -4.838,-1.397 -7.902,-1.397 -3.404,0 -6.242,0.76 -8.199,2.21 -1.982,1.446 -3.029,3.537 -3.029,6.05 0,5.672 4.648,6.748 9.041,7.787 0.676,0.158 0.57,0.134 0.828,0.188 2.006,0.438 4.084,0.899 4.084,2.551 0,0.497 -0.184,0.9 -0.559,1.279 -0.562,0.557 -1.424,0.805 -3.078,0.805 -2.803,0 -8.061,-1.309 -9.688,-1.826 a 0.4,0.4 0 0 0 -0.107,-0.02 0.302,0.302 0 0 0 -0.311,0.3 v 5.057 a 0.83,0.83 0 0 0 0.562,0.787 c 0.035,0.019 4.641,1.543 8.986,1.543 7.604,0 11.5,-2.976 11.5,-8.401 0,-2.728 -1.02,-4.709 -3.102,-6.08 m -34.363,-45.032 c 0.154,0.113 0.289,0.169 0.424,0.169 h 0.008 a 0.695,0.695 0 0 0 0.422,-0.169 16.629,16.629 0 0 0 2.795,-2.816 c 0.133,-0.18 0.246,-0.401 0.004,-0.662 a 15.482,15.482 0 0 0 -2.955,-2.932 c -0.125,-0.076 -0.197,-0.093 -0.273,-0.093 -0.068,0 -0.135,0.017 -0.262,0.093 a 15.836,15.836 0 0 0 -2.967,2.932 c -0.268,0.3 -0.07,0.539 0.012,0.662 a 16.466,16.466 0 0 0 2.792,2.816 m -11.715,22.908 v 2.769 c 0,0.718 0.262,1.021 0.867,1.021 h 22.568 c 0.613,0 0.875,-0.303 0.875,-1.021 v -2.769 a 1.17,1.17 0 0 0 -1.158,-1.152 h -21.998 a 1.17,1.17 0 0 0 -1.154,1.152 m 10.594,-3.97 h 3.098 c 0.543,0 0.58,-0.617 0.58,-0.625 0,-0.12 0.164,-12.997 0.191,-14.747 0,-0.13 -0.043,-0.422 -0.219,-0.604 a 0.542,0.542 0 0 0 -0.385,-0.146 29.933,29.933 0 0 0 -1.723,-0.044 c -0.791,0 -1.461,0.027 -1.711,0.044 a 0.523,0.523 0 0 0 -0.383,0.148 c -0.184,0.18 -0.221,0.472 -0.221,0.602 0.025,1.75 0.184,14.627 0.189,14.747 0.002,0.024 0.041,0.625 0.584,0.625 m 15.027,-13.746 c -0.822,-0.3 -1.629,-0.574 -2.395,-0.802 -0.98,-0.305 -1.916,-0.521 -2.734,-0.715 l -0.02,-0.003 a 2.225,2.225 0 0 0 -0.479,-0.062 c -0.82,0 -1.203,0.576 -1.357,0.924 -0.893,1.976 -1.535,3.772 -2.158,6.014 -0.051,0.186 -0.041,0.32 0.037,0.413 0.066,0.09 0.191,0.14 0.373,0.14 h 2.422 c 0.322,0 0.506,-0.115 0.574,-0.343 0.398,-1.35 0.68,-2.14 1.193,-3.281 0.061,-0.115 0.199,-0.235 0.438,-0.235 0.078,0 0.154,0.01 0.248,0.038 l 1.238,0.407 c 0.465,0.172 0.633,0.794 0.475,1.235 -0.025,0.069 -2.49,6.965 -3.225,9.235 -0.082,0.271 -0.07,0.477 0.021,0.604 0.084,0.113 0.244,0.175 0.477,0.175 h 2.994 c 0.381,0 0.602,-0.133 0.707,-0.417 0.107,-0.295 0.264,-0.728 0.447,-1.238 0.869,-2.419 2.32,-6.464 2.615,-7.565 0.486,-1.809 0.586,-3.597 -1.891,-4.524 m -25.797,13.328 c 0.104,0.283 0.332,0.418 0.717,0.418 h 2.994 c 0.227,0 0.389,-0.062 0.471,-0.176 0.094,-0.127 0.1,-0.333 0.014,-0.604 -0.728,-2.27 -3.191,-9.166 -3.221,-9.235 -0.156,-0.442 0.014,-1.062 0.477,-1.236 l 1.244,-0.406 a 0.846,0.846 0 0 1 0.24,-0.038 c 0.246,0 0.385,0.12 0.439,0.235 0.508,1.135 0.805,1.932 1.195,3.282 0.07,0.227 0.252,0.342 0.57,0.342 h 2.426 c 0.184,0 0.311,-0.049 0.377,-0.139 0.074,-0.093 0.08,-0.229 0.027,-0.414 -0.623,-2.24 -1.266,-4.038 -2.148,-6.013 -0.156,-0.35 -0.537,-0.925 -1.363,-0.925 -0.15,0 -0.311,0.023 -0.473,0.062 l -0.019,0.003 c -0.832,0.195 -1.764,0.411 -2.738,0.715 -0.768,0.229 -1.574,0.502 -2.393,0.803 -2.482,0.926 -2.381,2.714 -1.898,4.523 0.291,1.103 1.744,5.146 2.613,7.566 0.192,0.509 0.342,0.942 0.449,1.237"
       id="path4"
       inkscape:connector-curvature="0"
       style="fill:#ffffff;fill-opacity:0.94117647" />
  </g>
</svg>
