<?xml version="1.0" encoding="UTF-8" standalone="no"?>
<svg
   xmlns:dc="http://purl.org/dc/elements/1.1/"
   xmlns:cc="http://creativecommons.org/ns#"
   xmlns:rdf="http://www.w3.org/1999/02/22-rdf-syntax-ns#"
   xmlns:svg="http://www.w3.org/2000/svg"
   xmlns="http://www.w3.org/2000/svg"
   xmlns:xlink="http://www.w3.org/1999/xlink"
   xmlns:sodipodi="http://sodipodi.sourceforge.net/DTD/sodipodi-0.dtd"
   xmlns:inkscape="http://www.inkscape.org/namespaces/inkscape"
   width="1000"
   height="1000"
   viewBox="9.7 12.434 112.96802 112.9508"
   version="1.1"
   id="svg1271"
   sodipodi:docname="postnl2.svg"
   inkscape:version="0.92.4 (unknown)">
  <metadata
     id="metadata1275">
    <rdf:RDF>
      <cc:Work
         rdf:about="">
        <dc:format>image/svg+xml</dc:format>
        <dc:type
           rdf:resource="http://purl.org/dc/dcmitype/StillImage" />
        <dc:title></dc:title>
      </cc:Work>
    </rdf:RDF>
  </metadata>
  <sodipodi:namedview
     pagecolor="#ffffff"
     bordercolor="#666666"
     borderopacity="1"
     objecttolerance="10"
     gridtolerance="10"
     guidetolerance="10"
     inkscape:pageopacity="0"
     inkscape:pageshadow="2"
     inkscape:window-width="1920"
     inkscape:window-height="1016"
     id="namedview1273"
     showgrid="false"
     inkscape:pagecheckerboard="true"
     inkscape:zoom="0.26700352"
     inkscape:cx="723.21143"
     inkscape:cy="1301.4027"
     inkscape:window-x="0"
     inkscape:window-y="27"
     inkscape:window-maximized="1"
     inkscape:current-layer="g6" />
  <defs
     id="defs3">
    <path
       id="a"
       d="M 239.938,40.271 C 216.084,27.095 189.022,20.878 167.289,17.952 c -23.731,-3.188 -41.101,-2.46 -41.015,-2.584 0.052,0.066 -4.582,-0.098 -12.35,0.167 C 106,15.811 94.81,16.531 81.986,18.411 71.873,19.897 60.75,22.1 49.41,25.362 37.058,28.921 24.458,33.743 12.635,40.271 v 134.692 c 0.007,27.271 9.397,51.235 29.949,68.317 4.658,3.938 11.807,8.437 20.016,13.004 6.962,3.865 14.69,7.783 22.284,11.466 8.957,4.333 17.735,8.315 24.884,11.476 9.811,4.334 16.56,7.106 16.505,7.053 -0.082,0.072 14.932,-6.104 32.683,-14.389 18.897,-8.828 40.882,-20.027 51.021,-28.607 20.562,-17.081 29.963,-41.049 29.963,-68.326 V 98.33 77.415 67.77 c -0.002,-9.168 -0.002,-18.335 -0.002,-27.499"
       inkscape:connector-curvature="0" />
  </defs>
  <clipPath
     id="b">
    <use
       xlink:href="#a"
       overflow="visible"
       id="use5"
       style="overflow:visible"
       x="0"
       y="0"
       width="100%"
       height="100%" />
  </clipPath>
  <linearGradient
     id="c"
     gradientUnits="userSpaceOnUse"
     x1="313.23999"
     y1="361.05399"
     x2="548.73999"
     y2="361.05399"
     gradientTransform="translate(-304.24,-211.555)">
    <stop
       offset="0"
       stop-color="#ffd66b"
       id="stop8" />
    <stop
       offset=".282"
       stop-color="#fde2d2"
       id="stop10" />
    <stop
       offset=".491"
       stop-color="#e9aa70"
       id="stop12" />
    <stop
       offset="1"
       stop-color="#dc931d"
       id="stop14" />
  </linearGradient>
  <defs
     id="defs20">
    <path
       id="d"
       d="m 231.023,42.028 c -33.25,-3.497 -69.892,-4.414 -106.362,2.855 -10.585,2.128 -21.157,4.938 -31.589,8.591 -11.147,3.908 -22.126,8.768 -32.784,14.768 a 190.996,190.996 0 0 0 -38.925,28.978 3792.35,3792.35 0 0 1 -0.016,7.547 c -0.018,12.074 -0.029,24.159 -0.034,36.245 -0.009,11.342 0,22.69 0.009,34.039 0.018,25.302 9.11,46.589 26.897,61.366 10.938,5.661 21.878,11.326 32.822,16.991 8.355,4.333 16.716,8.655 25.074,12.987 6.721,3.477 13.441,6.953 20.162,10.44 13.396,-5.584 62.211,-27.024 78.068,-40.421 17.791,-14.777 26.871,-36.064 26.891,-61.366 0.027,-24.387 0.015,-48.788 -0.026,-73.15 a 28048.99,28048.99 0 0 0 -0.146,-49.569 c -0.017,-3.432 -0.026,-6.868 -0.041,-10.301"
       inkscape:connector-curvature="0" />
  </defs>
  <clipPath
     id="e">
    <use
       xlink:href="#d"
       overflow="visible"
       id="use22"
       style="overflow:visible"
       x="0"
       y="0"
       width="100%"
       height="100%" />
  </clipPath>
  <linearGradient
     id="f"
     gradientUnits="userSpaceOnUse"
     x1="320.23199"
     y1="343.91101"
     x2="421.233"
     y2="366.91101"
     gradientTransform="translate(-304.24,-211.555)">
    <stop
       offset="0"
       stop-color="#dbc9b8"
       id="stop25" />
    <stop
       offset=".311"
       stop-color="#775024"
       id="stop27" />
    <stop
       offset="1"
       stop-color="#4e2700"
       id="stop29" />
  </linearGradient>
  <defs
     id="defs69">
    <path
       id="g"
       d="m 199.436,177.938 c 1.461,-1.506 2.241,-3.629 2.241,-6.152 0,-0.102 0,-0.189 -0.005,-0.285 l -0.736,0.014 c 0.006,0.096 0.006,0.188 0.006,0.275 0,2.366 -0.688,4.252 -2.032,5.645 -1.581,1.611 -4.013,2.453 -7.021,2.453 v 0.739 c 3.215,-0.001 5.821,-0.922 7.547,-2.689"
       inkscape:connector-curvature="0" />
  </defs>
  <clipPath
     id="h">
    <use
       xlink:href="#g"
       overflow="visible"
       id="use71"
       style="overflow:visible"
       x="0"
       y="0"
       width="100%"
       height="100%" />
  </clipPath>
  <defs
     id="defs77">
    <path
       id="i"
       d="m 199.436,177.938 c 1.461,-1.506 2.241,-3.629 2.241,-6.152 0,-0.102 0,-0.189 -0.005,-0.285 l -0.736,0.014 c 0.006,0.096 0.006,0.188 0.006,0.275 0,2.366 -0.688,4.252 -2.032,5.645 -1.581,1.611 -4.013,2.453 -7.021,2.453 v 0.739 c 3.215,-0.001 5.821,-0.922 7.547,-2.689"
       inkscape:connector-curvature="0" />
  </defs>
  <clipPath
     id="j">
    <use
       xlink:href="#i"
       overflow="visible"
       id="use79"
       style="overflow:visible"
       x="0"
       y="0"
       width="100%"
       height="100%" />
  </clipPath>
  <linearGradient
     id="k"
     gradientUnits="userSpaceOnUse"
     x1="-422.86899"
     y1="106.006"
     x2="-418.24301"
     y2="106.006"
     gradientTransform="matrix(2.1164,0,0,-4.7729,1086.846,682.02)">
    <stop
       offset="0"
       stop-color="#492300"
       id="stop82" />
    <stop
       offset="1"
       stop-color="#492300"
       id="stop84" />
  </linearGradient>
  <defs
     id="defs92">
    <path
       id="l"
       d="m 225.648,172.291 0.719,0.03 c 0.355,-12.622 -2.991,-22.57 -20.701,-33.253 l -0.38,0.631 c 17.403,10.486 20.696,20.239 20.362,32.592"
       inkscape:connector-curvature="0" />
  </defs>
  <clipPath
     id="m">
    <use
       xlink:href="#l"
       overflow="visible"
       id="use94"
       style="overflow:visible"
       x="0"
       y="0"
       width="100%"
       height="100%" />
  </clipPath>
  <defs
     id="defs100">
    <path
       id="n"
       d="m 225.648,172.291 0.719,0.03 c 0.355,-12.622 -2.991,-22.57 -20.701,-33.253 l -0.38,0.631 c 17.403,10.486 20.696,20.239 20.362,32.592"
       inkscape:connector-curvature="0" />
  </defs>
  <clipPath
     id="o">
    <use
       xlink:href="#n"
       overflow="visible"
       id="use102"
       style="overflow:visible"
       x="0"
       y="0"
       width="100%"
       height="100%" />
  </clipPath>
  <linearGradient
     id="p"
     gradientUnits="userSpaceOnUse"
     x1="-566.16901"
     y1="186.54601"
     x2="-561.54102"
     y2="186.54601"
     gradientTransform="matrix(4.5568,0,0,-9.988,2785.229,2018.914)">
    <stop
       offset="0"
       stop-color="#70491c"
       id="stop105" />
    <stop
       offset="1"
       stop-color="#9c7955"
       id="stop107" />
  </linearGradient>
  <defs
     id="defs113">
    <path
       id="q"
       d="m 171.443,195.272 -1.094,-0.638 -0.729,0.407 1.443,0.872 c 7.226,4.28 15.613,6.608 23.625,6.515 V 201.7 c -7.879,0.083 -16.138,-2.207 -23.245,-6.428 m 54.205,-22.981 0.719,0.03 c -0.254,7.697 -3.045,14.896 -7.87,20.255 -5.72,6.348 -13.942,9.754 -23.806,9.854 v -0.729 c 9.646,-0.096 17.688,-3.42 23.264,-9.614 4.697,-5.234 7.441,-12.274 7.693,-19.796 z"
       inkscape:connector-curvature="0" />
  </defs>
  <clipPath
     id="r">
    <use
       xlink:href="#q"
       overflow="visible"
       id="use115"
       style="overflow:visible"
       x="0"
       y="0"
       width="100%"
       height="100%" />
  </clipPath>
  <defs
     id="defs121">
    <path
       id="s"
       d="m 171.443,195.272 -1.094,-0.638 -0.729,0.407 1.443,0.872 c 7.226,4.28 15.613,6.608 23.625,6.515 V 201.7 c -7.879,0.083 -16.138,-2.207 -23.245,-6.428 m 54.205,-22.981 0.719,0.03 c -0.254,7.697 -3.045,14.896 -7.87,20.255 -5.72,6.348 -13.942,9.754 -23.806,9.854 v -0.729 c 9.646,-0.096 17.688,-3.42 23.264,-9.614 4.697,-5.234 7.441,-12.274 7.693,-19.796 z"
       inkscape:connector-curvature="0" />
  </defs>
  <clipPath
     id="t">
    <use
       xlink:href="#s"
       overflow="visible"
       id="use123"
       style="overflow:visible"
       x="0"
       y="0"
       width="100%"
       height="100%" />
  </clipPath>
  <linearGradient
     id="u"
     gradientUnits="userSpaceOnUse"
     x1="-649.263"
     y1="178.94099"
     x2="-644.63599"
     y2="178.94099"
     gradientTransform="matrix(12.2657,0,0,-9.3352,8133.288,1857.865)">
    <stop
       offset="0"
       stop-color="#492300"
       id="stop126" />
    <stop
       offset="1"
       stop-color="#9c7955"
       id="stop128" />
  </linearGradient>
  <defs
     id="defs134">
    <path
       id="v"
       d="m 174.073,172.991 c 5.091,4.57 12.247,7.635 17.813,7.635 v -0.74 c -5.322,0 -12.443,-3.05 -17.326,-7.438 l -4.865,-4.372 0.723,1.631 3.655,3.284"
       inkscape:connector-curvature="0" />
  </defs>
  <clipPath
     id="w">
    <use
       xlink:href="#v"
       overflow="visible"
       id="use136"
       style="overflow:visible"
       x="0"
       y="0"
       width="100%"
       height="100%" />
  </clipPath>
  <defs
     id="defs142">
    <path
       id="x"
       d="m 174.073,172.991 c 5.091,4.57 12.247,7.635 17.813,7.635 v -0.74 c -5.322,0 -12.443,-3.05 -17.326,-7.438 l -4.865,-4.372 0.723,1.631 3.655,3.284"
       inkscape:connector-curvature="0" />
  </defs>
  <clipPath
     id="y">
    <use
       xlink:href="#x"
       overflow="visible"
       id="use144"
       style="overflow:visible"
       x="0"
       y="0"
       width="100%"
       height="100%" />
  </clipPath>
  <linearGradient
     id="z"
     gradientUnits="userSpaceOnUse"
     x1="-578.40198"
     y1="126.537"
     x2="-573.77399"
     y2="126.537"
     gradientTransform="matrix(4.7961,0,0,-5.5125,2943.768,871.887)">
    <stop
       offset="0"
       stop-color="#663f0f"
       id="stop147" />
    <stop
       offset="1"
       stop-color="#492300"
       id="stop149" />
  </linearGradient>
  <defs
     id="defs155">
    <path
       id="A"
       d="m 203.705,138.744 1.581,0.956 0.38,-0.631 -1.59,-0.956 c -6.939,-4.125 -10.256,-6.334 -10.152,-11.258 l -0.736,-0.018 c -0.113,5.333 3.524,7.744 10.517,11.907"
       inkscape:connector-curvature="0" />
  </defs>
  <clipPath
     id="B">
    <use
       xlink:href="#A"
       overflow="visible"
       id="use157"
       style="overflow:visible"
       x="0"
       y="0"
       width="100%"
       height="100%" />
  </clipPath>
  <defs
     id="defs163">
    <path
       id="C"
       d="m 203.705,138.744 1.581,0.956 0.38,-0.631 -1.59,-0.956 c -6.939,-4.125 -10.256,-6.334 -10.152,-11.258 l -0.736,-0.018 c -0.113,5.333 3.524,7.744 10.517,11.907"
       inkscape:connector-curvature="0" />
  </defs>
  <clipPath
     id="D">
    <use
       xlink:href="#C"
       overflow="visible"
       id="use165"
       style="overflow:visible"
       x="0"
       y="0"
       width="100%"
       height="100%" />
  </clipPath>
  <linearGradient
     id="E"
     gradientUnits="userSpaceOnUse"
     x1="-912.18298"
     y1="380.48199"
     x2="-907.55603"
     y2="380.48199"
     gradientTransform="matrix(-2.6961,0,0,5.5802,-2253.669,-1989.898)">
    <stop
       offset="0"
       stop-color="#70491c"
       id="stop168" />
    <stop
       offset="1"
       stop-color="#9c7955"
       id="stop170" />
  </linearGradient>
  <defs
     id="defs176">
    <path
       id="F"
       d="m 53.3,103.351 a 9764.337,9764.337 0 0 0 -0.097,64.648 h 0.732 c -0.036,-21.338 -0.005,-43.095 0.092,-64.643 l 0.018,-2.973 -0.725,0.739 -0.02,2.229"
       inkscape:connector-curvature="0" />
  </defs>
  <clipPath
     id="G">
    <use
       xlink:href="#F"
       overflow="visible"
       id="use178"
       style="overflow:visible"
       x="0"
       y="0"
       width="100%"
       height="100%" />
  </clipPath>
  <defs
     id="defs184">
    <path
       id="H"
       d="m 53.3,103.351 a 9764.337,9764.337 0 0 0 -0.097,64.648 h 0.732 c -0.036,-21.338 -0.005,-43.095 0.092,-64.643 l 0.018,-2.973 -0.725,0.739 -0.02,2.229"
       inkscape:connector-curvature="0" />
  </defs>
  <clipPath
     id="I">
    <use
       xlink:href="#H"
       overflow="visible"
       id="use186"
       style="overflow:visible"
       x="0"
       y="0"
       width="100%"
       height="100%" />
  </clipPath>
  <linearGradient
     id="J"
     gradientUnits="userSpaceOnUse"
     x1="-743.68799"
     y1="101.033"
     x2="-739.06201"
     y2="101.033"
     gradientTransform="matrix(0,-14.6153,-2.9907,0,355.765,-10701.216)">
    <stop
       offset="0"
       stop-color="#9c7955"
       id="stop189" />
    <stop
       offset="1"
       stop-color="#af906f"
       id="stop191" />
  </linearGradient>
  <defs
     id="defs203">
    <path
       id="K"
       d="m 61.556,180.134 0.004,-0.736 c -2.076,-0.008 -7.601,-0.055 -7.626,-11.396 h -0.732 c 0.03,12.056 6.294,12.114 8.354,12.132 m 0,0 0.004,-0.736 c 2.591,0.02 4.861,-0.4 6.58,-1.179 l 0.734,0.456 c -1.867,0.953 -4.42,1.476 -7.318,1.459 z"
       inkscape:connector-curvature="0" />
  </defs>
  <clipPath
     id="L">
    <use
       xlink:href="#K"
       overflow="visible"
       id="use205"
       style="overflow:visible"
       x="0"
       y="0"
       width="100%"
       height="100%" />
  </clipPath>
  <defs
     id="defs211">
    <path
       id="M"
       d="m 61.556,180.134 0.004,-0.736 c -2.076,-0.008 -7.601,-0.055 -7.626,-11.396 h -0.732 c 0.03,12.056 6.294,12.114 8.354,12.132 m 0,0 0.004,-0.736 c 2.591,0.02 4.861,-0.4 6.58,-1.179 l 0.734,0.456 c -1.867,0.953 -4.42,1.476 -7.318,1.459 z"
       inkscape:connector-curvature="0" />
  </defs>
  <clipPath
     id="N">
    <use
       xlink:href="#M"
       overflow="visible"
       id="use213"
       style="overflow:visible"
       x="0"
       y="0"
       width="100%"
       height="100%" />
  </clipPath>
  <linearGradient
     id="O"
     gradientUnits="userSpaceOnUse"
     x1="-836.13202"
     y1="389.853"
     x2="-831.50598"
     y2="389.853"
     gradientTransform="matrix(-3.3879,0,0,5.4271,-2763.858,-1941.687)">
    <stop
       offset="0"
       stop-color="#532d00"
       id="stop216" />
    <stop
       offset="1"
       stop-color="#9c7955"
       id="stop218" />
  </linearGradient>
  <defs
     id="defs226">
    <path
       id="P"
       d="m 92.578,193.412 c -8.207,5.569 -19.171,8.438 -31.688,8.319 l -0.007,0.732 c 12.672,0.112 23.784,-2.802 32.108,-8.458 l 1.288,-0.876 -0.728,-0.389 -0.973,0.672 m -55.556,-0.714 c -5.272,-5.833 -7.877,-14.477 -7.909,-25.68 h -0.734 c 0.025,11.402 2.708,20.198 8.105,26.162 5.496,6.041 13.703,9.176 24.398,9.284 l 0.007,-0.731 C 50.408,201.63 42.38,198.585 37.022,192.698 Z m -8.641,-91.992 0.728,0.714 0.004,65.599 h -0.734 z"
       inkscape:connector-curvature="0" />
  </defs>
  <clipPath
     id="Q">
    <use
       xlink:href="#P"
       overflow="visible"
       id="use228"
       style="overflow:visible"
       x="0"
       y="0"
       width="100%"
       height="100%" />
  </clipPath>
  <defs
     id="defs234">
    <path
       id="R"
       d="m 92.578,193.412 c -8.207,5.569 -19.171,8.438 -31.688,8.319 l -0.007,0.732 c 12.672,0.112 23.784,-2.802 32.108,-8.458 l 1.288,-0.876 -0.728,-0.389 -0.973,0.672 m -55.556,-0.714 c -5.272,-5.833 -7.877,-14.477 -7.909,-25.68 h -0.734 c 0.025,11.402 2.708,20.198 8.105,26.162 5.496,6.041 13.703,9.176 24.398,9.284 l 0.007,-0.731 C 50.408,201.63 42.38,198.585 37.022,192.698 Z m -8.641,-91.992 0.728,0.714 0.004,65.599 h -0.734 z"
       inkscape:connector-curvature="0" />
  </defs>
  <clipPath
     id="S">
    <use
       xlink:href="#R"
       overflow="visible"
       id="use236"
       style="overflow:visible"
       x="0"
       y="0"
       width="100%"
       height="100%" />
  </clipPath>
  <linearGradient
     id="T"
     gradientUnits="userSpaceOnUse"
     x1="-663.35199"
     y1="228.89"
     x2="-658.72601"
     y2="228.89"
     gradientTransform="matrix(14.2448,0,0,-24.8207,9477.698,5832.812)">
    <stop
       offset="0"
       stop-color="#815b33"
       id="stop239" />
    <stop
       offset="1"
       stop-color="#9c7955"
       id="stop241" />
  </linearGradient>
  <defs
     id="defs249">
    <path
       id="U"
       d="m 190.307,158.29 -0.381,0.633 c 8.543,5.078 10.915,7.771 11.01,12.592 l 0.736,-0.015 c -0.11,-5.142 -2.557,-7.96 -11.365,-13.21 m 0,0 -0.381,0.633 c -8.385,-4.977 -13.802,-9.75 -17.068,-15.023 -2.817,-4.6 -4.032,-9.492 -4.064,-16.341 l 0.729,-0.007 c 0.045,11.698 3.461,20.476 20.784,30.738 z"
       inkscape:connector-curvature="0" />
  </defs>
  <clipPath
     id="V">
    <use
       xlink:href="#U"
       overflow="visible"
       id="use251"
       style="overflow:visible"
       x="0"
       y="0"
       width="100%"
       height="100%" />
  </clipPath>
  <g
     id="g6"
     style="fill:#ffffff;fill-opacity:0.94117647"
     transform="matrix(0.91369001,0,0,0.91368984,-41.89912,-162.27595)">
    <path
       style="fill:#f29839;fill-opacity:1;stroke:#000000;stroke-width:0.04945574px;stroke-linecap:butt;stroke-linejoin:miter;stroke-opacity:1"
       d="m 94.074009,218.35367 c -3.7045,1.4818 -5.55675,5.37153 -5.55675,5.37153 l -2.03747,5.00107 -2.59315,8.8908 -1.29658,12.22486 1.29658,20.55998 5.55675,14.26233 3.88972,3.33405 5.741983,0.7409 17.781608,-4.4454 16.2998,-8.70558 12.41008,-8.1499 6.6681,-9.26125 2.2227,-5.37153 -2.77837,-5.37153 -9.26126,-10.18737 -14.31562,-9.78845 -12.35678,-5.58524 -16.299808,-3.88972 z"
       id="path4636"
       inkscape:connector-curvature="0"
       sodipodi:nodetypes="cccccccccccccccccccc" />
    <path
       d="m 130.13961,227.27295 c -9.5292,-5.254 -23.844,-10.9088 -32.754008,-10.9088 -2.337603,0 -4.220403,0.3852 -5.595203,1.1416 -3.328,1.836 -6.1108,6.7872 -8.0524,14.324 -1.6108,6.2648 -2.5368,13.9724 -2.5368,21.144 0,14.2724 3.314,31.4584 10.5892,35.4716 1.4884,0.8204 3.4796,1.2376 5.919603,1.2376 9.205608,0 23.222008,-5.9296 32.429608,-11.0068 10.1416,-5.5916 25.2296,-17.0488 25.2452,-25.7024 -0.014,-8.132 -14.7688,-19.924 -25.2452,-25.7008 m -1.1972,49.6096 c -14.616,8.0584 -30.138408,12.6908 -35.838411,9.5524 -6.2852,-3.468 -9.4328,-20.0396 -9.4344,-33.24 0.002,-13.098 3.3428,-29.8776 9.4344,-33.238 5.346803,-2.9492 21.576811,1.6868 35.838411,9.5496 12.3596,6.8164 23.9624,17.51 23.9728,23.6884 -0.0116,6.4768 -11.418,16.7656 -23.9728,23.6876"
       id="path2-3"
       inkscape:connector-curvature="0"
       style="fill:#ffffff;fill-opacity:0.94117647;stroke-width:0.40000001" />
    <path
       d="m 136.11521,248.98215 c -0.6024,0 -1.3392,0.1508 -2.0288,0.4128 -0.3172,0.12 -0.7844,0.3848 -1.0908,0.6212 l -0.0836,0.0644 c -0.006,0.002 -0.028,0.0132 -0.0468,0.0132 a 0.0856,0.0856 0 0 1 -0.0868,-0.0848 v -0.7752 a 0.0648,0.0648 0 0 0 -0.0648,-0.0636 h -2.5056 a 0.294,0.294 0 0 0 -0.2976,0.2912 v 9.8756 c 0,0.0328 0.0296,0.0612 0.0648,0.0612 h 2.7368 c 0.0344,0 0.0648,-0.0284 0.0648,-0.0612 v -6.9724 c 0,-0.0512 0.0408,-0.114 0.0744,-0.1348 0.1272,-0.0776 0.4928,-0.3016 0.9548,-0.5692 0.464,-0.2652 0.9344,-0.4088 1.3212,-0.4088 1.086,0 1.55,0.5816 1.55,1.9468 v 6.1388 c 0,0.0328 0.0272,0.0612 0.0616,0.0612 h 2.7312 c 0.0368,0 0.0624,-0.0252 0.0624,-0.0612 v -6.6396 c 0,-2.4316 -1.1812,-3.7156 -3.4172,-3.7156 m 7.8876,-3.3356 c -0.4928,-0.5436 -2.0164,-1.5024 -2.1892,-1.5024 -0.0728,0 -0.0868,0.0168 -0.0868,0.0708 l 0.003,15.122 c 0,0.0328 0.0264,0.0612 0.06,0.0612 h 2.7268 a 0.064,0.064 0 0 0 0.0628,-0.0612 l -8e-4,-12.1852 a 2.25,2.25 0 0 0 -0.576,-1.5052 m -37.84681,3.2928 c -2.9608,0 -5.3436,1.6428 -5.3436,5.3424 0,3.6148 2.3828,5.3416 5.3436,5.3416 2.95001,0 5.33761,-1.7268 5.33761,-5.3416 -4e-4,-3.6968 -2.3876,-5.3424 -5.33761,-5.3424 m 0,8.1428 c -1.322,0 -2.314,-1.0052 -2.314,-2.7992 0,-1.952 0.992,-2.806 2.314,-2.806 1.31721,0 2.30801,0.8536 2.30801,2.806 -4e-4,1.794 -0.9908,2.7992 -2.30801,2.7992 m 21.91241,-0.0916 c -0.0992,0 -0.7736,0.264 -1.204,0.264 -0.9156,0 -1.4632,-0.432 -1.4632,-1.8816 v -3.7752 c 0,-0.054 0.0428,-0.0992 0.0992,-0.0992 h 2.4736 a 0.0972,0.0972 0 0 0 0.0992,-0.0996 h 0.002 l -0.002,-1.9432 a 0.3248,0.3248 0 0 0 -0.3236,-0.3232 h -2.2492 a 0.0972,0.0972 0 0 1 -0.0992,-0.0984 v -2.6728 c 0,-0.0816 -0.036,-0.1056 -0.122,-0.1056 -0.1984,0 -1.7384,0.9888 -2.2164,1.514 a 2.3012,2.3012 0 0 0 -0.586,1.5288 v 6.5668 c 0,2.8492 1.6452,3.74 3.4156,3.74 1.0124,0 1.7,-0.1488 2.108,-0.3688 a 0.3252,0.3252 0 0 0 0.1688,-0.286 v -1.8604 a 0.1008,0.1008 0 0 0 -0.1008,-0.0996 m -34.175211,-7.858 h -3.8936 a 0.3296,0.3296 0 0 0 -0.3328,0.328 v 11.9552 a 2.308,2.308 0 0 0 0.586,1.5296 c 0.4812,0.5272 2.0204,1.514 2.2204,1.514 0.086,0 0.1204,-0.0232 0.1204,-0.106 v -4.8172 c 0,-0.0572 0.0428,-0.1012 0.1,-0.1012 h 1.1384 c 3.650803,0 5.868803,-2.06 5.868803,-5.0344 -4e-4,-2.9704 -1.9816,-5.268 -5.807603,-5.268 m 0,7.6264 h -1.2016 a 0.0988,0.0988 0 0 1 -0.0984,-0.0996 v -4.7544 c 0,-0.054 0.0428,-0.0996 0.0984,-0.0996 h 1.1428 c 2.1584,0 2.977203,1.1848 2.977203,2.4492 4e-4,0.7168 -0.3464,2.5044 -2.918403,2.5044 m 25.835211,-2.9268 c -0.6048,-0.3968 -1.342,-0.5584 -2.0556,-0.7128 -0.1272,-0.0296 -0.6016,-0.1356 -0.7084,-0.1604 -0.8712,-0.1928 -1.5588,-0.346 -1.5588,-0.9108 0,-0.4876 0.4712,-0.8056 1.196,-0.8056 0.9188,0 2.1928,0.1844 3.586,0.706 0.0696,0.0256 0.1656,-0.0152 0.1704,-0.1088 v -2.0188 a 0.342,0.342 0 0 0 -0.24,-0.322 c -0.4868,-0.1544 -1.9352,-0.5588 -3.1608,-0.5588 -1.3616,0 -2.4968,0.304 -3.2796,0.884 -0.7928,0.5784 -1.2116,1.4148 -1.2116,2.42 0,2.2688 1.8592,2.6992 3.6164,3.1148 0.2704,0.0632 0.228,0.0536 0.3312,0.0752 0.8024,0.1752 1.6336,0.3596 1.6336,1.0204 0,0.1988 -0.0736,0.36 -0.2236,0.5116 -0.2248,0.2228 -0.5696,0.322 -1.2312,0.322 -1.1212,0 -3.2244,-0.5236 -3.8752,-0.7304 a 0.16,0.16 0 0 0 -0.0428,-0.008 0.1208,0.1208 0 0 0 -0.1244,0.12 v 2.0228 a 0.332,0.332 0 0 0 0.2248,0.3148 c 0.014,0.008 1.8564,0.6172 3.5944,0.6172 3.0416,0 4.6,-1.1904 4.6,-3.3604 0,-1.0912 -0.408,-1.8836 -1.2408,-2.432 m -13.74501,-18.0128 c 0.0616,0.0452 0.1156,0.0676 0.1696,0.0676 h 0.003 a 0.278,0.278 0 0 0 0.16881,-0.0676 6.6516,6.6516 0 0 0 1.118,-1.1264 c 0.0532,-0.072 0.0984,-0.1604 0.002,-0.2648 a 6.1928,6.1928 0 0 0 -1.182,-1.1728 c -0.05,-0.0304 -0.0788,-0.0372 -0.10921,-0.0372 -0.0272,0 -0.054,0.007 -0.1048,0.0372 a 6.3344,6.3344 0 0 0 -1.1868,1.1728 c -0.1072,0.12 -0.028,0.2156 0.005,0.2648 a 6.5864,6.5864 0 0 0 1.1168,1.1264 m -4.686,9.1632 v 1.1076 c 0,0.2872 0.1048,0.4084 0.3468,0.4084 h 9.02721 c 0.2452,0 0.35,-0.1212 0.35,-0.4084 v -1.1076 a 0.468,0.468 0 0 0 -0.4632,-0.4608 h -8.79921 a 0.468,0.468 0 0 0 -0.4616,0.4608 m 4.2376,-1.588 h 1.23921 c 0.2172,0 0.232,-0.2468 0.232,-0.25 0,-0.048 0.0656,-5.1988 0.0764,-5.8988 0,-0.052 -0.0172,-0.1688 -0.0876,-0.2416 a 0.2168,0.2168 0 0 0 -0.154,-0.0584 11.9732,11.9732 0 0 0 -0.68921,-0.0176 c -0.3164,0 -0.5844,0.0108 -0.6844,0.0176 a 0.2092,0.2092 0 0 0 -0.1532,0.0592 c -0.0736,0.072 -0.0884,0.1888 -0.0884,0.2408 0.01,0.7 0.0736,5.8508 0.0756,5.8988 8e-4,0.01 0.0164,0.25 0.2336,0.25 m 6.01081,-5.4984 c -0.3288,-0.12 -0.6516,-0.2296 -0.958,-0.3208 -0.392,-0.122 -0.7664,-0.2084 -1.0936,-0.286 l -0.008,-0.001 a 0.89,0.89 0 0 0 -0.1916,-0.0248 c -0.328,0 -0.4812,0.2304 -0.5428,0.3696 -0.3572,0.7904 -0.614,1.5088 -0.8632,2.4056 -0.0204,0.0744 -0.0164,0.128 0.0148,0.1652 0.0264,0.036 0.0764,0.056 0.1492,0.056 h 0.9688 c 0.1288,0 0.2024,-0.046 0.2296,-0.1372 0.1592,-0.54 0.272,-0.856 0.4772,-1.3124 0.0244,-0.046 0.0796,-0.094 0.1752,-0.094 0.0312,0 0.0616,0.004 0.0992,0.0152 l 0.4952,0.1628 c 0.186,0.0688 0.2532,0.3176 0.19,0.494 -0.01,0.0276 -0.996,2.786 -1.29,3.694 -0.0328,0.1084 -0.028,0.1908 0.008,0.2416 0.0336,0.0452 0.0976,0.07 0.1908,0.07 h 1.1976 c 0.1524,0 0.2408,-0.0532 0.2828,-0.1668 0.0428,-0.118 0.1056,-0.2912 0.1788,-0.4952 0.3476,-0.9676 0.928,-2.5856 1.046,-3.026 0.1944,-0.7236 0.2344,-1.4388 -0.7564,-1.8096 m -10.31881,5.3312 c 0.0416,0.1132 0.1328,0.1672 0.2868,0.1672 h 1.1976 c 0.0908,0 0.1556,-0.0248 0.1884,-0.0704 0.0376,-0.0508 0.04,-0.1332 0.006,-0.2416 -0.2912,-0.908 -1.2764,-3.6664 -1.2884,-3.694 -0.0624,-0.1768 0.006,-0.4248 0.1908,-0.4944 l 0.4976,-0.1624 a 0.3384,0.3384 0 0 1 0.096,-0.0152 c 0.0984,0 0.154,0.048 0.1756,0.094 0.2032,0.454 0.322,0.7728 0.478,1.3128 0.028,0.0908 0.1008,0.1368 0.228,0.1368 h 0.9704 c 0.0736,0 0.1244,-0.0196 0.1508,-0.0556 0.0296,-0.0372 0.032,-0.0916 0.0108,-0.1656 -0.2492,-0.896 -0.5064,-1.6152 -0.8592,-2.4052 -0.0624,-0.14 -0.2148,-0.37 -0.5452,-0.37 -0.06,0 -0.1244,0.009 -0.1892,0.0248 l -0.008,0.001 c -0.3328,0.078 -0.7056,0.1644 -1.0952,0.286 -0.3072,0.0916 -0.6296,0.2008 -0.9572,0.3212 -0.992798,0.3704 -0.952398,1.0856 -0.7592,1.8092 0.1164,0.4412 0.6976,2.0584 1.0452,3.0264 0.0768,0.2036 0.1368,0.3768 0.1796,0.4948"
       id="path4"
       inkscape:connector-curvature="0"
       style="fill:#ffffff;fill-opacity:0.94117647;stroke-width:0.40000001" />
  </g>
</svg>
