<?xml version="1.0" encoding="UTF-8" standalone="no"?>
<!-- Created with Inkscape (http://www.inkscape.org/) -->

<svg
   xmlns:dc="http://purl.org/dc/elements/1.1/"
   xmlns:cc="http://creativecommons.org/ns#"
   xmlns:rdf="http://www.w3.org/1999/02/22-rdf-syntax-ns#"
   xmlns:svg="http://www.w3.org/2000/svg"
   xmlns="http://www.w3.org/2000/svg"
   xmlns:sodipodi="http://sodipodi.sourceforge.net/DTD/sodipodi-0.dtd"
   xmlns:inkscape="http://www.inkscape.org/namespaces/inkscape"
   version="1.0"
   width="1200"
   height="1200"
   id="svg2"
   sodipodi:docname="tnt1.svg"
   inkscape:version="0.92.4 (unknown)">
  <metadata
     id="metadata10">
    <rdf:RDF>
      <cc:Work
         rdf:about="">
        <dc:format>image/svg+xml</dc:format>
        <dc:type
           rdf:resource="http://purl.org/dc/dcmitype/StillImage" />
        <dc:title></dc:title>
      </cc:Work>
    </rdf:RDF>
  </metadata>
  <sodipodi:namedview
     pagecolor="#ffffff"
     bordercolor="#666666"
     borderopacity="1"
     objecttolerance="10"
     gridtolerance="10"
     guidetolerance="10"
     inkscape:pageopacity="0"
     inkscape:pageshadow="2"
     inkscape:window-width="3440"
     inkscape:window-height="1376"
     id="namedview8"
     showgrid="false"
     inkscape:pagecheckerboard="true"
     inkscape:zoom="0.38452777"
     inkscape:cx="574.73092"
     inkscape:cy="249.14487"
     inkscape:window-x="0"
     inkscape:window-y="27"
     inkscape:window-maximized="1"
     inkscape:current-layer="svg2" />
  <defs
     id="defs4">
    <inkscape:perspective
       id="perspective10" />
    <inkscape:perspective
       id="perspective2400" />
  </defs>
  <g
     transform="translate(-290.55114,338.67819)"
     id="layer1">
    <g
       transform="matrix(1.0967687,0,0,1.0967687,-86.18051,-25.281723)"
       id="g2451">
      <path
         d="m 1189.6411,85.515829 c -66.1985,0 -123.6948,37.097411 -152.7518,91.577161 -29.0625,-54.47975 -86.5643,-91.577161 -152.76279,-91.577161 -65.97791,0 -123.32531,36.860281 -152.47603,91.058781 -29.04594,-54.51836 -86.56981,-91.64334 -152.79037,-91.64334 -95.4926,0 -172.908,77.20585 -172.908,172.44477 0,95.23892 77.4154,172.45028 172.908,172.45028 65.98342,0 123.33082,-36.86027 152.48154,-91.05878 29.04595,54.51285 86.56981,91.63783 152.78486,91.63783 66.19849,0 123.70579,-37.09741 152.76279,-91.58268 29.0625,54.49078 86.5533,91.58268 152.7518,91.58268 95.4926,0 172.9135,-77.20585 172.9135,-172.45029 0.01,-95.23341 -77.4154,-172.439251 -172.9135,-172.439251 z M 578.86011,389.50833 c -73.1746,0 -132.49074,-59.15622 -132.49074,-132.13229 0,-72.97607 59.32166,-132.13229 132.49074,-132.13229 73.1746,0 132.49626,59.15622 132.49626,132.13229 0,72.97607 -59.32166,132.13229 -132.49626,132.13229 z m 305.2664,0.58456 c -73.16909,0 -132.48523,-59.15622 -132.48523,-132.13229 0,-72.97607 59.32166,-132.13229 132.48523,-132.13229 73.18011,0 132.49079,59.15622 132.49079,132.13229 0,72.97607 -59.3162,132.13229 -132.49079,132.13229 z m 305.51459,0 c -73.1691,0 -132.4908,-59.15622 -132.4908,-132.13229 0,-72.97607 59.3272,-132.13229 132.4908,-132.13229 73.1801,0 132.4907,59.15622 132.4907,132.13229 0,72.97607 -59.3106,132.13229 -132.4907,132.13229 z m -77.5478,-167.88411 41.9228,-0.006 9.6287,-0.47426 0.011,115.28487 h 51.8713 V 221.73451 l 9.5956,0.46875 41.9503,0.006 V 178.9349 h -154.9852 v 43.27388 z m -610.78646,0 41.92277,-0.006 9.62867,-0.47426 0.006,115.28487 h 51.8713 V 221.73451 l 9.59558,0.46875 41.95586,0.006 V 178.9349 h -154.9797 z m 411.1487,37.32902 -1.91912,-3.06066 -55.41174,-77.54224 h -48.24814 v 158.07897 l 48.97608,0.011 0.0166,-80.6029 1.91911,3.05514 55.15255,77.55327 48.33086,-0.011 V 178.9349 h -48.81615 z"
         id="path2391"
         style="fill:#ffffff;fill-rule:evenodd"
         inkscape:connector-curvature="0" />
      <path
         d="m 855.86917,256.422 -0.0166,80.6029 -36.38601,-0.006 v 7.29044 l 48.98159,0.011 0.011,-69.8382 -10.67095,-15.00551 z m -91.63231,8.83455 c 0,-72.97607 59.31615,-132.13229 132.49074,-132.13229 21.66176,0 42.0827,5.21691 60.13784,14.40992 -20.88418,-13.70955 -45.8713,-21.71139 -72.73893,-21.71139 -73.16909,0 -132.48523,59.15623 -132.48523,132.13229 0,51.37498 29.41542,95.8676 72.3529,117.72237 -35.98895,-23.61947 -59.75732,-64.24078 -59.75732,-110.4209 z m 161.29404,79.05879 48.33086,-0.011 V 186.23085 h -12.59007 v 150.78302 l -40.92461,0.006 z M 912.45554,259.5378 v -10.69301 l -44.73528,-62.61394 h -7.37867 l 50.20034,70.24629 z m 124.43376,-82.44481 c 1.2574,-2.35478 2.636,-4.63235 3.9926,-6.91544 -16.158,-24.31432 -38.261,-44.34924 -64.32897,-57.90438 25.31247,15.99815 46.20767,38.32719 60.33637,64.81982 z m 178.6378,44.64152 v 115.27936 h -39.2813 v 7.29044 h 51.8713 V 229.03046 l 9.5956,0.46875 41.9614,0.011 v -43.27939 h -12.6011 v 35.97241 l -41.9503,-0.006 z m -90.8437,7.77573 38.9558,-0.011 V 221.729 l -9.6286,0.47426 h -29.3272 z m -54.932,35.74631 c 0,-72.97607 59.3162,-132.13229 132.4908,-132.13229 21.6617,0 42.0827,5.21691 60.1378,14.40992 -20.8842,-13.70955 -45.8713,-21.71139 -72.7389,-21.71139 -73.1691,0 -132.4908,59.15623 -132.4908,132.13229 0,51.37498 29.421,95.87312 72.364,117.72789 -35.989,-23.61948 -59.7629,-64.2463 -59.7629,-110.42642 z M 884.12651,430.40537 c -28.79227,0 -55.93564,-7.03125 -79.81982,-19.45036 26.7408,16.90256 58.41725,26.74631 92.42091,26.74631 63.32534,0 118.6378,-34.00366 148.7591,-84.66172 -3.0606,-4.60478 -5.9834,-9.31434 -8.5974,-14.21691 -29.057,54.49078 -86.5643,91.58268 -152.76279,91.58268 z M 1282.4976,112.52133 c 48.1213,30.61763 80.0625,84.29224 80.0625,145.43927 0,95.24444 -77.4209,172.45028 -172.9135,172.45028 -28.7813,0 -55.9136,-7.02573 -79.7812,-19.43381 26.7352,16.89153 58.3952,26.72425 92.3823,26.72425 95.4926,0 172.908,-77.20585 172.908,-172.44477 -0.01,-66.34188 -37.5882,-123.89884 -92.6581,-152.73522 z M 578.86011,429.82632 c -28.96322,0 -56.23894,-7.13602 -80.21687,-19.68749 26.818,17.05698 58.64335,26.98345 92.81245,26.98345 63.12681,0 118.27936,-33.77756 148.46133,-84.15438 -3.05515,-4.59926 -5.96691,-9.29778 -8.57537,-14.19484 -29.15072,54.19299 -86.49812,91.05326 -152.48154,91.05326 z M 458.96495,264.67751 c 0,-72.97607 59.31615,-132.13229 132.49074,-132.13229 21.65624,0 42.07719,5.21139 60.12681,14.39889 -20.87867,-13.70404 -45.86027,-21.70036 -72.72239,-21.70036 -73.1746,0 -132.49074,59.15622 -132.49074,132.13229 0,51.36395 29.40991,95.84554 72.32533,117.71134 -35.97241,-23.62499 -59.72975,-64.24078 -59.72975,-110.40987 z m 272.68553,-88.1029 c 1.26286,-2.34927 2.64705,-4.62132 4.0147,-6.90441 -16.15808,-24.34741 -38.27755,-44.40439 -64.36761,-57.97608 25.32351,16.0147 46.22424,38.3658 60.35291,64.88049 z m -217.74806,52.93563 38.95586,-0.011 V 221.729 l -9.62867,0.47426 h -29.32719 z m 90.83268,-7.77573 v 115.27936 h -39.28123 v 7.29044 h 51.87129 V 229.03046 l 9.6011,0.46875 41.95587,0.011 v -43.27939 h -12.59559 v 35.97241 l -41.95586,-0.006 z"
         id="path2393"
         style="fill-rule:evenodd"
         inkscape:connector-curvature="0" />
    </g>
  </g>
</svg>
